<?xml version="1.0" encoding="utf-8"?>
<!-- Generator: Adobe Illustrator 23.0.3, SVG Export Plug-In . SVG Version: 6.00 Build 0)  -->
<svg version="1.1" xmlns="http://www.w3.org/2000/svg" xmlns:xlink="http://www.w3.org/1999/xlink" x="0px" y="0px"
	 viewBox="0 0 1590 876" style="enable-background:new 0 0 1590 876;" xml:space="preserve">
<style type="text/css">
	.st0{fill:#FFFFFF;}
	.st1{fill:#939699;}
	.st2{fill:#399FD3;}
	.st3{font-family:'ProximaNova-Regular';}
	.st4{font-size:151.1363px;}
	.st5{letter-spacing:-6;}
	.st6{fill:#CF1B41;}
	.st7{display:none;}
	.st8{display:inline;}
</style>
<g id="Layer_2">
	<rect class="st0" width="1590" height="876"/>
</g>
<g id="Layer_1">
	<g id="grey">
		<g>
			<path class="st1" d="M1206.7,467.5V240.1v-44h-203.8l-2.8-38.1l-53.7-3.1l-2.4-13l-33.1-2.5c-4.3-3.1-16.5-5.7-16.5-5.7l-19.8-11
				c-8.1-7.6-31.6-19.4-31.6-19.4V91.7l-19.1-1.3c-8.5-35.3-34.2-38.6-45.1-38.6c-0.1,0-0.2,0-0.3,0s-0.2,0-0.3,0
				c-11,0-38.4,3.4-46.8,38.6l-21,1.3v11.6c0,0-21.7,11.7-29.7,19.4l-18.4,10.9c0,0-12,2.6-16.3,5.7l-33,2.4l-2.3,12.9L557,158
				l-2.8,38.1H346.6v44v227.5l-0.2,46.7h233.5h45.6h31.8h44.5H725v-97c0,0-2-22.6,19.9-42.5c0,0,11-11.3,33-11.3
				s31.8,11.3,31.8,11.3c21.8,20,18.2,42.5,18.2,42.5v97h23.3h44.5h31.8H973h233.5L1206.7,467.5z M481.3,396.4h-29.7v-44.5h29.7
				V396.4L481.3,396.4z M481.3,278.8h-26.5v-55.2h26.5V278.8z M799.4,277.7h-45.6v-70h45.6V277.7z M1059.2,222.5h26.5v55.2h-26.5
				V222.5z M1088.9,395.4h-29.7v-44.5h29.7V395.4z"/>
			<g>
				<text transform="matrix(1 0 0 1 334.127 775.0694)" class="st2 st3 st4 st5">SAN ANTONIO</text>
				<g>
					<g>
						<g>
							<path class="st6" d="M341.1,593.8c0-32.7,21.6-51.6,46.5-51.6c12.7,0,23,6,29.6,12.8l-11.7,14.3c-4.9-4.6-10.3-7.8-17.4-7.8
								c-13.5,0-24.2,11.9-24.2,31.7c0,20.2,9.4,32,23.8,32c8.1,0,14.5-4,19.3-9.2l11.7,14c-8.2,9.5-19.1,14.5-31.8,14.5
								C362,644.3,341.1,627,341.1,593.8z"/>
							<path class="st6" d="M459.3,592.8c0-32.2,18.2-50.6,44.7-50.6s44.7,18.6,44.7,50.6c0,32.2-18.2,51.5-44.7,51.5
								S459.3,625,459.3,592.8z M525.9,592.8c0-19.8-8.5-31.4-21.9-31.4s-21.9,11.7-21.9,31.4S490.6,625,504,625
								C517.4,625,525.9,612.5,525.9,592.8z"/>
							<path class="st6" d="M597.5,543.9h27.8c30.1,0,49.5,15,49.5,48.8s-19.4,49.7-48.2,49.7h-29.1V543.9z M624,624.5
								c16.7,0,28-8.2,28-31.8s-11.3-30.9-28-30.9h-4.2v62.6h4.2V624.5z"/>
							<path class="st6" d="M723.7,543.9h61.7v18.7H746v19.8h33.6v18.7H746v22.7h41v18.7h-63.2L723.7,543.9L723.7,543.9z"/>
						</g>
					</g>
					<g>
						<g>
							<path class="st2" d="M901.6,543.9h62.2v18.7h-39.9v22.8H958v18.7h-34.1v38.3h-22.3L901.6,543.9L901.6,543.9z"/>
							<path class="st2" d="M1006.4,592.8c0-32.2,18.2-50.6,44.7-50.6c26.6,0,44.7,18.6,44.7,50.6c0,32.2-18.2,51.5-44.7,51.5
								C1024.5,644.3,1006.4,625,1006.4,592.8z M1073,592.8c0-19.8-8.5-31.4-21.9-31.4s-21.9,11.7-21.9,31.4s8.5,32.3,21.9,32.3
								C1064.5,625,1073,612.5,1073,592.8z"/>
							<path class="st2" d="M1144.6,543.9h35.5c20.9,0,38,7.3,38,30.7c0,22.6-17.1,32.4-38,32.4h-13.2v35.4h-22.3V543.9z
								 M1178.3,589.3c11.7,0,18-5,18-14.7s-6.3-13-18-13h-11.4v27.7H1178.3z M1176,601.1l15.4-14.2l31.4,55.6H1198L1176,601.1z"/>
						</g>
					</g>
				</g>
			</g>
		</g>
	</g>
	<g class="st7">
		<g class="st8">
			<path class="st2" d="M1206.7,467.5V240.1v-44h-203.8l-2.8-38.1l-53.7-3.1l-2.4-13l-33.1-2.5c-4.3-3.1-16.5-5.7-16.5-5.7l-19.8-11
				c-8.1-7.6-31.6-19.4-31.6-19.4V91.7l-19.1-1.3c-8.5-35.3-34.2-38.6-45.1-38.6c-0.1,0-0.2,0-0.3,0s-0.2,0-0.3,0
				c-11,0-38.4,3.4-46.8,38.6l-21,1.3v11.6c0,0-21.7,11.7-29.7,19.4l-18.4,10.9c0,0-12,2.6-16.3,5.7l-33,2.4l-2.3,12.9L557,158
				l-2.8,38.1H346.6v44v227.5l-0.2,46.7h233.5h45.6h31.8h44.5H725v-97c0,0-2-22.6,19.9-42.5c0,0,11-11.3,33-11.3
				s31.8,11.3,31.8,11.3c21.8,20,18.2,42.5,18.2,42.5v97h23.3h44.5h31.8H973h233.5L1206.7,467.5z M481.3,396.4h-29.7v-44.5h29.7
				V396.4L481.3,396.4z M481.3,278.8h-26.5v-55.2h26.5V278.8z M799.4,277.7h-45.6v-70h45.6V277.7z M1059.2,222.5h26.5v55.2h-26.5
				V222.5z M1088.9,395.4h-29.7v-44.5h29.7V395.4z"/>
			<g>
				<text transform="matrix(1 0 0 1 334.127 775.0694)" class="st2 st3 st4 st5">SAN ANTONIO</text>
				<g>
					<g>
						<g>
							<path class="st6" d="M341.1,593.8c0-32.7,21.6-51.6,46.5-51.6c12.7,0,23,6,29.6,12.8l-11.7,14.3c-4.9-4.6-10.3-7.8-17.4-7.8
								c-13.5,0-24.2,11.9-24.2,31.7c0,20.2,9.4,32,23.8,32c8.1,0,14.5-4,19.3-9.2l11.7,14c-8.2,9.5-19.1,14.5-31.8,14.5
								C362,644.3,341.1,627,341.1,593.8z"/>
							<path class="st6" d="M459.3,592.8c0-32.2,18.2-50.6,44.7-50.6s44.7,18.6,44.7,50.6c0,32.2-18.2,51.5-44.7,51.5
								S459.3,625,459.3,592.8z M525.9,592.8c0-19.8-8.5-31.4-21.9-31.4s-21.9,11.7-21.9,31.4S490.6,625,504,625
								C517.4,625,525.9,612.5,525.9,592.8z"/>
							<path class="st6" d="M597.5,543.9h27.8c30.1,0,49.5,15,49.5,48.8s-19.4,49.7-48.2,49.7h-29.1V543.9z M624,624.5
								c16.7,0,28-8.2,28-31.8s-11.3-30.9-28-30.9h-4.2v62.6h4.2V624.5z"/>
							<path class="st6" d="M723.7,543.9h61.7v18.7H746v19.8h33.6v18.7H746v22.7h41v18.7h-63.2L723.7,543.9L723.7,543.9z"/>
						</g>
					</g>
					<g>
						<g>
							<path class="st2" d="M901.6,543.9h62.2v18.7h-39.9v22.8H958v18.7h-34.1v38.3h-22.3L901.6,543.9L901.6,543.9z"/>
							<path class="st2" d="M1006.4,592.8c0-32.2,18.2-50.6,44.7-50.6c26.6,0,44.7,18.6,44.7,50.6c0,32.2-18.2,51.5-44.7,51.5
								C1024.5,644.3,1006.4,625,1006.4,592.8z M1073,592.8c0-19.8-8.5-31.4-21.9-31.4s-21.9,11.7-21.9,31.4s8.5,32.3,21.9,32.3
								C1064.5,625,1073,612.5,1073,592.8z"/>
							<path class="st2" d="M1144.6,543.9h35.5c20.9,0,38,7.3,38,30.7c0,22.6-17.1,32.4-38,32.4h-13.2v35.4h-22.3V543.9z
								 M1178.3,589.3c11.7,0,18-5,18-14.7s-6.3-13-18-13h-11.4v27.7H1178.3z M1176,601.1l15.4-14.2l31.4,55.6H1198L1176,601.1z"/>
						</g>
					</g>
				</g>
			</g>
		</g>
	</g>
</g>
<g id="Layer_3" class="st7">
	<g id="grey_1_" class="st8">
		<g>
			<path class="st2" d="M1208.1,467.5V240.1v-44h-203.8l-2.8-38.1l-53.7-3.1l-2.4-13l-33.1-2.5c-4.3-3.1-16.5-5.7-16.5-5.7l-19.8-11
				c-8.1-7.6-31.6-19.4-31.6-19.4V91.7l-19.1-1.3c-8.5-35.3-34.2-38.6-45.1-38.6c-0.1,0-0.2,0-0.3,0s-0.2,0-0.3,0
				c-11,0-38.4,3.4-46.8,38.6l-21,1.3v11.6c0,0-21.7,11.7-29.7,19.4l-18.4,10.9c0,0-12,2.6-16.3,5.7l-33,2.4l-2.3,12.9l-53.7,3.4
				l-2.8,38.1H348v44v227.5l-0.2,46.7h233.5h45.6h31.8h44.5h23.2v-97c0,0-2-22.6,19.9-42.5c0,0,11-11.3,33-11.3s31.8,11.3,31.8,11.3
				c21.8,20,18.2,42.5,18.2,42.5v97h23.3h44.5h31.8h45.5h233.5L1208.1,467.5z M482.7,396.4H453v-44.5h29.7V396.4L482.7,396.4z
				 M482.7,278.8h-26.5v-55.2h26.5V278.8z M800.8,277.7h-45.6v-70h45.6V277.7z M1060.6,222.5h26.5v55.2h-26.5V222.5z M1090.3,395.4
				h-29.7v-44.5h29.7V395.4z"/>
			<g>
				<text transform="matrix(1 0 0 1 335.5494 775.0751)" class="st2 st3 st4 st5">SAN ANTONIO</text>
				<g>
					<g>
						<g>
							<path class="st6" d="M342.5,593.8c0-32.7,21.6-51.6,46.5-51.6c12.7,0,23,6,29.6,12.8l-11.7,14.3c-4.9-4.6-10.3-7.8-17.4-7.8
								c-13.5,0-24.2,11.9-24.2,31.7c0,20.2,9.4,32,23.8,32c8.1,0,14.5-4,19.3-9.2l11.7,14c-8.2,9.5-19.1,14.5-31.8,14.5
								C363.4,644.3,342.5,627,342.5,593.8z"/>
							<path class="st6" d="M460.7,592.8c0-32.2,18.2-50.6,44.7-50.6s44.7,18.6,44.7,50.6c0,32.2-18.2,51.5-44.7,51.5
								S460.7,625,460.7,592.8z M527.3,592.8c0-19.8-8.5-31.4-21.9-31.4s-21.9,11.7-21.9,31.4S492,625,505.4,625
								C518.8,625,527.3,612.5,527.3,592.8z"/>
							<path class="st6" d="M598.9,543.9h27.8c30.1,0,49.5,15,49.5,48.8s-19.4,49.7-48.2,49.7h-29.1V543.9z M625.4,624.5
								c16.7,0,28-8.2,28-31.8s-11.3-30.9-28-30.9h-4.2v62.6h4.2V624.5z"/>
							<path class="st6" d="M725.1,543.9h61.7v18.7h-39.4v19.8H781v18.7h-33.6v22.7h41v18.7h-63.2L725.1,543.9L725.1,543.9z"/>
						</g>
					</g>
					<g>
						<g>
							<path class="st2" d="M903,543.9h62.2v18.7h-39.9v22.8h34.1v18.7h-34.1v38.3H903L903,543.9L903,543.9z"/>
							<path class="st2" d="M1007.8,592.8c0-32.2,18.2-50.6,44.7-50.6c26.6,0,44.7,18.6,44.7,50.6c0,32.2-18.2,51.5-44.7,51.5
								C1025.9,644.3,1007.8,625,1007.8,592.8z M1074.4,592.8c0-19.8-8.5-31.4-21.9-31.4s-21.9,11.7-21.9,31.4s8.5,32.3,21.9,32.3
								C1065.9,625,1074.4,612.5,1074.4,592.8z"/>
							<path class="st2" d="M1146,543.9h35.5c20.9,0,38,7.3,38,30.7c0,22.6-17.1,32.4-38,32.4h-13.2v35.4H1146V543.9z M1179.7,589.3
								c11.7,0,18-5,18-14.7s-6.3-13-18-13h-11.4v27.7H1179.7z M1177.4,601.1l15.4-14.2l31.4,55.6h-24.8L1177.4,601.1z"/>
						</g>
					</g>
				</g>
			</g>
		</g>
	</g>
</g>
</svg>
